<?xml version="1.0" encoding="utf-8"?>
<!-- Generator: Adobe Illustrator 16.0.0, SVG Export Plug-In . SVG Version: 6.00 Build 0)  -->
<!DOCTYPE svg PUBLIC "-//W3C//DTD SVG 1.1//EN" "http://www.w3.org/Graphics/SVG/1.1/DTD/svg11.dtd">
<svg version="1.1" id="Layer_1" xmlns="http://www.w3.org/2000/svg" xmlns:xlink="http://www.w3.org/1999/xlink" x="0px" y="0px"
	 width="70.917px" height="38px" viewBox="0 0 70.917 38" enable-background="new 0 0 70.917 38" xml:space="preserve">
<path fill="#1F4633" d="M13.239,10.415C12.294,9.26,10.57,7.906,7.723,7.799c-0.034-0.005-0.063-0.02-0.1-0.02
	c-0.043,0-0.081,0.006-0.123,0.007c-0.042,0-0.08-0.007-0.123-0.007c-0.036,0-0.066,0.015-0.1,0.02
	C4.431,7.906,2.706,9.26,1.76,10.415C0.658,11.761,0,13.563,0,15.235c0,5.193,5.712,13.853,5.77,13.938
	c0.608,0.896,1.285,1.05,1.677,1.05c0.021,0,0.034-0.003,0.054-0.004c0.02,0.001,0.032,0.004,0.054,0.004
	c0.392,0,1.069-0.153,1.677-1.05C9.288,29.088,15,20.43,15,15.235C15,13.563,14.342,11.761,13.239,10.415z M8.077,28.378
	c-0.267,0.394-0.472,0.434-0.517,0.437c-0.021,0-0.043-0.002-0.065,0c-0.019-0.001-0.038,0-0.058,0
	c-0.043-0.003-0.249-0.04-0.517-0.437c-1.167-1.722-5.526-8.999-5.526-13.142c0-2.316,1.664-5.973,6.104-6.041
	c4.439,0.068,6.103,3.725,6.103,6.041C13.602,19.379,9.245,26.656,8.077,28.378z"/>
<path fill="#1F4633" d="M7.568,18.364c-1.768,0-3.206-1.438-3.206-3.206c0-1.768,1.438-3.206,3.206-3.206
	c1.767,0,3.206,1.438,3.206,3.206C10.774,16.926,9.337,18.364,7.568,18.364z M7.568,13.361c-0.991,0-1.797,0.806-1.797,1.797
	s0.806,1.797,1.797,1.797c0.992,0,1.797-0.807,1.797-1.797S8.56,13.361,7.568,13.361z"/>
<path fill="#1F4633" d="M50.26,10.492c-0.945-1.144-2.669-2.486-5.518-2.592c-0.033-0.004-0.062-0.02-0.099-0.02
	c-0.043,0-0.082,0.006-0.124,0.007c-0.042,0-0.079-0.007-0.123-0.007c-0.036,0-0.064,0.015-0.1,0.02
	c-2.847,0.106-4.57,1.448-5.516,2.592c-1.103,1.333-1.761,3.119-1.761,4.776c0,5.146,5.712,13.726,5.77,13.811
	c0.607,0.888,1.284,1.04,1.677,1.04c0.021,0,0.034-0.003,0.055-0.004c0.02,0.001,0.032,0.004,0.053,0.004
	c0.393,0,1.069-0.152,1.678-1.04c0.057-0.085,5.769-8.665,5.769-13.811C52.021,13.612,51.363,11.826,50.26,10.492z M42.74,15.193
	c0-0.982,0.8-1.781,1.782-1.781c0.98,0,1.78,0.799,1.78,1.781c0,0.981-0.798,1.781-1.78,1.781
	C43.539,16.974,42.74,16.174,42.74,15.193z"/>
</svg>
